<svg width="38" height="38" viewBox="0 0 38 38" fill="none" xmlns="http://www.w3.org/2000/svg">
<path d="M24.3581 11C23.9806 10.3451 23.4213 9.81365 22.7481 9.47C21.9631 9.07961 21.0945 8.88734 20.2181 8.91C18.9666 8.89201 17.7289 9.17314 16.6081 9.73C15.5436 10.2288 14.6396 11.015 13.9981 12C13.3537 13.0704 13.0244 14.3009 13.0481 15.55C13.0511 16.398 13.2424 17.2348 13.6081 18C13.97 18.7596 14.5472 19.396 15.2681 19.83C16.1294 20.3173 17.1091 20.5562 18.0981 20.52C18.6693 20.5335 19.2393 20.4593 19.7881 20.3C20.3054 20.134 20.8073 19.9232 21.2881 19.67C21.6581 19.47 21.8381 19.26 21.8381 19.02C21.8531 18.9542 21.8531 18.8858 21.8381 18.82C21.6981 18.49 21.4881 18.42 21.3381 18.42C21.2277 18.4251 21.1206 18.4596 21.0281 18.52C20.6167 18.7567 20.1808 18.9478 19.7281 19.09C19.209 19.2238 18.6739 19.2844 18.1381 19.27C17.3892 19.2973 16.6477 19.1136 15.9981 18.74C15.4645 18.4159 15.0371 17.9433 14.7681 17.38C14.506 16.8129 14.3728 16.1947 14.3781 15.57C14.354 14.5435 14.621 13.5312 15.1481 12.65C15.6544 11.8334 16.3828 11.1778 17.2481 10.76C18.1852 10.3168 19.2115 10.0945 20.2481 10.11C20.8717 10.0937 21.4908 10.2202 22.0581 10.48C22.5403 10.6957 22.9525 11.0421 23.2481 11.48C23.5257 11.9487 23.6676 12.4853 23.6581 13.03C23.6571 13.577 23.5694 14.1205 23.3981 14.64C23.2688 15.1398 23.0297 15.6044 22.6981 16C22.6013 16.1376 22.4745 16.2515 22.3272 16.3329C22.1799 16.4143 22.0161 16.4612 21.8481 16.47C21.79 16.4728 21.732 16.4626 21.6783 16.4401C21.6247 16.4176 21.5768 16.3834 21.5381 16.34C21.4486 16.2307 21.4055 16.0907 21.4181 15.95C21.4115 15.8868 21.4115 15.8232 21.4181 15.76L21.9381 12.46C21.944 12.3834 21.944 12.3065 21.9381 12.23C21.9381 11.93 21.7981 11.56 21.1181 11.56C20.9094 11.5484 20.7035 11.6123 20.5381 11.74C20.4087 11.8553 20.3209 12.0099 20.2881 12.18C20.1797 12.0116 20.0365 11.8683 19.8681 11.76C19.6103 11.589 19.3074 11.4985 18.9981 11.5C18.4019 11.5093 17.8281 11.7289 17.3781 12.12C16.8752 12.5313 16.4718 13.0509 16.1981 13.64C15.9223 14.1902 15.772 14.7947 15.7581 15.41C15.752 15.8249 15.8518 16.2344 16.0481 16.6C16.2241 16.934 16.491 17.2114 16.8181 17.4C17.1187 17.5849 17.4651 17.6819 17.8181 17.68C18.1883 17.7009 18.5577 17.6274 18.8918 17.4665C19.2259 17.3056 19.5136 17.0625 19.7281 16.76C19.833 17.0043 20.0067 17.2127 20.2281 17.36C20.5205 17.5671 20.8697 17.6788 21.2281 17.68C21.9449 17.696 22.6438 17.4548 23.1981 17C23.7579 16.5412 24.1944 15.9501 24.4681 15.28C24.7575 14.5896 24.907 13.8486 24.9081 13.1C24.9096 12.3642 24.7201 11.6406 24.3581 11ZM19.9981 13.78C19.9804 14.1222 19.9096 14.4596 19.7881 14.78C19.7202 15.0101 19.6191 15.229 19.4881 15.43C19.3591 15.6471 19.1933 15.8399 18.9981 16C18.7979 16.1556 18.5516 16.2401 18.2981 16.24C18.1929 16.246 18.0876 16.2295 17.9893 16.1916C17.891 16.1536 17.8019 16.0951 17.7281 16.02C17.577 15.8268 17.5023 15.5847 17.5181 15.34C17.5224 14.954 17.5935 14.5718 17.7281 14.21C17.8468 13.8365 18.0485 13.4946 18.3181 13.21C18.4216 13.0941 18.5478 13.0006 18.6888 12.9353C18.8298 12.8699 18.9827 12.8341 19.1381 12.83C19.3794 12.8167 19.6175 12.8913 19.8081 13.04C19.896 13.1395 19.959 13.2585 19.9921 13.3871C20.0251 13.5158 20.0271 13.6504 19.9981 13.78Z" fill="#FF6D70"/>
<path d="M33.62 15.3501L31 13.0801V6.00006C31 5.73485 30.8946 5.48049 30.7071 5.29296C30.5196 5.10542 30.2652 5.00006 30 5.00006H21.68L19.68 3.24006C19.4989 3.08514 19.2684 3 19.03 3C18.7916 3 18.5611 3.08514 18.38 3.24006L16.32 5.00006H8C7.73478 5.00006 7.48043 5.10542 7.29289 5.29296C7.10536 5.48049 7 5.73485 7 6.00006V13.0801L4.38 15.3501C3.94968 15.7231 3.60396 16.1837 3.36597 16.7011C3.12799 17.2184 3.00321 17.7806 3 18.3501V31.0001C3 32.061 3.42143 33.0784 4.17157 33.8285C4.92172 34.5787 5.93913 35.0001 7 35.0001H31C32.0609 35.0001 33.0783 34.5787 33.8284 33.8285C34.5786 33.0784 35 32.061 35 31.0001V18.3701C34.9996 17.7973 34.8762 17.2312 34.6382 16.7102C34.4001 16.1891 34.0529 15.7253 33.62 15.3501ZM32.84 31.7901L21.18 25.7901L33 19.6401V31.0001C32.9992 31.2714 32.9448 31.5399 32.84 31.7901ZM32.31 16.8601C32.5145 17.0361 32.6783 17.2545 32.79 17.5001L31 18.4301V15.7201L32.31 16.8601ZM29 7.00006V19.4601L19 24.6301L9 19.4601V7.00006H29ZM7 15.7201V18.4301L5.21 17.5001C5.32168 17.2545 5.48547 17.0361 5.69 16.8601L7 15.7201ZM5 31.0001V19.6401L30.82 33.0001H7C6.46957 33.0001 5.96086 32.7894 5.58579 32.4143C5.21071 32.0392 5 31.5305 5 31.0001Z" fill="#001E62"/>
</svg>
