<svg width="38" height="38" viewBox="0 0 38 38" fill="none" xmlns="http://www.w3.org/2000/svg">
<path d="M26 36C25.8605 35.9997 25.7225 35.9701 25.5951 35.9133C25.4676 35.8565 25.3535 35.7736 25.26 35.67L22.83 33H19.71C18.7269 32.9974 17.7847 32.6056 17.0896 31.9104C16.3944 31.2153 16.0026 30.2731 16 29.29V19.71C16.0026 18.7269 16.3944 17.7847 17.0896 17.0896C17.7847 16.3944 18.7269 16.0026 19.71 16H32.29C33.2731 16.0026 34.2153 16.3944 34.9104 17.0896C35.6056 17.7847 35.9974 18.7269 36 19.71V29.29C35.9974 30.2731 35.6056 31.2153 34.9104 31.9104C34.2153 32.6056 33.2731 32.9974 32.29 33H28.94L26.77 35.63C26.6769 35.7447 26.5596 35.8374 26.4265 35.9014C26.2934 35.9653 26.1477 35.999 26 36ZM19.71 18C19.2573 18.0026 18.8239 18.1836 18.5037 18.5037C18.1836 18.8239 18.0026 19.2573 18 19.71V29.29C18.0026 29.7427 18.1836 30.1761 18.5037 30.4963C18.8239 30.8164 19.2573 30.9974 19.71 31H23.27C23.4095 31.0003 23.5475 31.0299 23.6749 31.0867C23.8024 31.1435 23.9165 31.2264 24.01 31.33L26 33.47L27.73 31.37C27.8241 31.254 27.943 31.1605 28.078 31.0965C28.213 31.0325 28.3606 30.9995 28.51 31H32.33C32.7757 30.987 33.199 30.8015 33.5106 30.4825C33.8221 30.1635 33.9976 29.7359 34 29.29V19.71C33.9974 19.2573 33.8164 18.8239 33.4963 18.5037C33.1761 18.1836 32.7427 18.0026 32.29 18H19.71Z" fill="#001E62"/>
<path d="M25.0815 24.7902C25.1489 24.7177 25.2311 24.6605 25.3225 24.6225C25.414 24.5846 25.5125 24.5667 25.6115 24.5702C26.0812 24.5913 26.5449 24.4578 26.9315 24.1902C27.1011 24.0445 27.2339 23.8607 27.319 23.6539C27.4042 23.4471 27.4393 23.2232 27.4215 23.0002C27.425 22.8135 27.3895 22.6281 27.3172 22.4558C27.2449 22.2836 27.1373 22.1284 27.0015 22.0002C26.6966 21.7216 26.2942 21.5743 25.8815 21.5902C25.4371 21.5828 25.007 21.7476 24.6815 22.0502C24.516 22.2148 24.2947 22.3112 24.0615 22.3202C23.908 22.3222 23.759 22.269 23.6415 22.1702C23.5492 22.1146 23.4714 22.0378 23.4146 21.9462C23.3578 21.8545 23.3236 21.7507 23.3148 21.6433C23.306 21.5358 23.3229 21.4278 23.364 21.3282C23.4052 21.2286 23.4694 21.1401 23.5515 21.0702C23.8345 20.7671 24.1743 20.5225 24.5515 20.3502C24.958 20.1848 25.3927 20.0999 25.8315 20.1002C26.3699 20.0952 26.9004 20.2295 27.3715 20.4902C27.831 20.7305 28.2168 21.0907 28.4879 21.5327C28.7591 21.9746 28.9055 22.4818 28.9115 23.0002C28.9289 23.3431 28.8778 23.686 28.761 24.0088C28.6442 24.3316 28.4642 24.6279 28.2315 24.8802C27.7376 25.3575 27.1028 25.6627 26.4215 25.7502C26.4215 25.7502 26.3515 25.7502 26.3515 25.8102V26.2702C26.3555 26.4709 26.28 26.665 26.1415 26.8102C26.0729 26.8813 25.9905 26.9375 25.8994 26.9753C25.8082 27.0132 25.7102 27.0319 25.6115 27.0302C25.5129 27.0313 25.4151 27.0123 25.324 26.9745C25.2329 26.9367 25.1504 26.8808 25.0815 26.8102C24.9429 26.665 24.8674 26.4709 24.8715 26.2702V25.3302C24.8678 25.2307 24.8845 25.1314 24.9206 25.0385C24.9567 24.9456 25.0115 24.8611 25.0815 24.7902ZM25.0015 29.0502C24.9343 28.9762 24.8828 28.8892 24.8502 28.7947C24.8175 28.7002 24.8043 28.6 24.8115 28.5002V28.2902C24.8004 28.1904 24.8119 28.0892 24.8451 27.9944C24.8784 27.8996 24.9326 27.8134 25.0036 27.7424C25.0747 27.6713 25.1608 27.6171 25.2557 27.5839C25.3505 27.5506 25.4516 27.5391 25.5515 27.5502H25.7115C25.8114 27.5391 25.9125 27.5506 26.0073 27.5839C26.1022 27.6171 26.1883 27.6713 26.2594 27.7424C26.3304 27.8134 26.3846 27.8996 26.4179 27.9944C26.4511 28.0892 26.4626 28.1904 26.4515 28.2902V28.5002C26.4626 28.6001 26.4511 28.7012 26.4179 28.7961C26.3846 28.8909 26.3304 28.977 26.2594 29.0481C26.1883 29.1192 26.1022 29.1733 26.0073 29.2066C25.9125 29.2399 25.8114 29.2514 25.7115 29.2402H25.5515C25.4517 29.2474 25.3516 29.2342 25.257 29.2016C25.1625 29.1689 25.0756 29.1174 25.0015 29.0502Z" fill="#FF6D70"/>
<path d="M13 24C10.8244 24 8.69767 23.3549 6.88873 22.1462C5.07979 20.9375 3.66989 19.2195 2.83733 17.2095C2.00477 15.1995 1.78693 12.9878 2.21137 10.854C2.6358 8.72022 3.68345 6.76021 5.22183 5.22183C6.76021 3.68345 8.72022 2.6358 10.854 2.21137C12.9878 1.78693 15.1995 2.00477 17.2095 2.83733C19.2195 3.66989 20.9375 5.07979 22.1462 6.88873C23.3549 8.69767 24 10.8244 24 13C24 13.2652 23.8946 13.5196 23.7071 13.7071C23.5196 13.8946 23.2652 14 23 14C22.7348 14 22.4804 13.8946 22.2929 13.7071C22.1054 13.5196 22 13.2652 22 13C22 11.22 21.4722 9.47992 20.4832 7.99987C19.4943 6.51983 18.0887 5.36628 16.4442 4.68509C14.7996 4.0039 12.99 3.82567 11.2442 4.17294C9.49836 4.5202 7.89472 5.37737 6.63604 6.63604C5.37737 7.89472 4.5202 9.49836 4.17294 11.2442C3.82567 12.99 4.0039 14.7996 4.68509 16.4442C5.36628 18.0887 6.51983 19.4943 7.99987 20.4832C9.47992 21.4722 11.22 22 13 22C13.2652 22 13.5196 22.1054 13.7071 22.2929C13.8946 22.4804 14 22.7348 14 23C14 23.2652 13.8946 23.5196 13.7071 23.7071C13.5196 23.8946 13.2652 24 13 24Z" fill="#001E62"/>
<path d="M13 18C12.7348 18 12.4804 17.8946 12.2929 17.7071C12.1054 17.5196 12 17.2652 12 17V12C12 11.7348 12.1054 11.4804 12.2929 11.2929C12.4804 11.1054 12.7348 11 13 11C13.2652 11 13.5196 11.1054 13.7071 11.2929C13.8946 11.4804 14 11.7348 14 12V17C14 17.2652 13.8946 17.5196 13.7071 17.7071C13.5196 17.8946 13.2652 18 13 18Z" fill="#FF6D70"/>
<path d="M13 10.0001C12.8684 10.0009 12.7379 9.97568 12.6161 9.92591C12.4943 9.87615 12.3834 9.80282 12.29 9.71014C12.2017 9.61294 12.1306 9.50132 12.08 9.38014C12.0288 9.25992 12.0016 9.13082 12 9.00014C12.0037 8.73537 12.1073 8.48177 12.29 8.29014C12.4306 8.15138 12.6092 8.05739 12.8032 8.02001C12.9972 7.98264 13.1979 8.00356 13.38 8.08014C13.5036 8.12595 13.6161 8.19754 13.71 8.29014C13.8927 8.48177 13.9963 8.73537 14 9.00014C13.9984 9.13082 13.9712 9.25992 13.92 9.38014C13.8724 9.50289 13.801 9.61504 13.71 9.71014C13.6166 9.80282 13.5057 9.87615 13.3839 9.92591C13.2621 9.97568 13.1316 10.0009 13 10.0001Z" fill="#FF6D70"/>
</svg>
