<svg width="168" height="31" viewBox="0 0 168 31" fill="none" xmlns="http://www.w3.org/2000/svg">
<path d="M34.5312 12.454C35.1565 12.454 35.5405 12.0051 35.4238 11.2371C35.0009 8.04697 33.9695 4.96768 32.3855 2.16647C31.5241 0.687563 30.3566 0.134918 29.0593 0.0389186C28.6805 0 28.1823 0 27.5648 0C27.0044 0 26.2675 0 25.7175 0.0233512C25.6861 0.025887 25.6559 0.036531 25.6299 0.0542398C25.6039 0.0719486 25.5829 0.0961143 25.5691 0.124368C25.5552 0.152622 25.5489 0.183993 25.5508 0.215408C25.5527 0.246822 25.5628 0.277201 25.5799 0.303565C27.7049 3.07976 29.3628 7.33227 29.8376 12.454H34.5312Z" fill="#004282"/>
<path d="M41.7415 12.454C42.3668 12.454 42.7586 12.0285 42.6367 11.2397C42.1806 8.01762 41.0546 4.92683 39.3312 2.16647C38.9486 1.53359 38.4131 1.00706 37.7738 0.635284C37.1345 0.263512 36.4121 0.0584367 35.6728 0.0389186C35.2447 0.0155675 34.7673 0 34.1835 0C33.6646 0 33.0627 0 32.5489 0.0259458C32.5137 0.0272242 32.4796 0.0388749 32.451 0.0594371C32.4224 0.0799994 32.4004 0.108558 32.388 0.141531C32.3755 0.174505 32.3731 0.210426 32.3809 0.24479C32.3888 0.279154 32.4066 0.310431 32.4322 0.3347C34.7673 3.1083 36.542 7.34006 37.0609 12.4462L41.7415 12.454Z" fill="#004282"/>
<path d="M48.9466 12.454C49.5745 12.454 49.9845 12.0051 49.8444 11.2371C49.3411 8.00795 48.1712 4.91888 46.4092 2.16647C46.0213 1.53323 45.4813 1.00693 44.8383 0.635382C44.1954 0.263831 43.4698 0.0588021 42.7274 0.0389186C42.2916 0.0155675 41.7208 0 41.137 0C40.6181 0 40.1303 0 39.6166 0.0233512C39.5812 0.0249981 39.5471 0.0367733 39.5183 0.0572713C39.4895 0.0777692 39.4672 0.106124 39.4541 0.13895C39.441 0.171777 39.4376 0.207689 39.4443 0.242399C39.451 0.277109 39.4676 0.309151 39.492 0.3347C41.8505 3.1109 43.7341 7.34006 44.2816 12.4462L48.9466 12.454Z" fill="#004282"/>
<path d="M12.9729 15.5C12.9729 21.9501 14.9759 27.3546 17.7547 30.6653C17.7798 30.6898 17.7974 30.721 17.8051 30.7552C17.8129 30.7893 17.8106 30.8251 17.7986 30.858C17.7865 30.8909 17.7651 30.9196 17.7371 30.9407C17.7091 30.9617 17.6755 30.9742 17.6406 30.9766C17.1216 31 16.5171 31 16.006 31C15.4248 31 14.9422 30.9844 14.5167 30.9611C13.7772 30.9423 13.0544 30.7378 12.4146 30.3665C11.7749 29.9951 11.2388 29.4689 10.8557 28.8361C8.4817 25.1414 7.22333 20.4297 7.22333 15.5C7.22333 10.5703 8.47391 5.85855 10.8557 2.16647C11.2397 1.53141 11.7777 1.00349 12.4199 0.631592C13.0621 0.259696 13.7877 0.0558465 14.5297 0.0389186C14.9422 0.0155675 15.4248 0 16.006 0C16.5249 0 17.1242 0 17.6406 0.0259458C17.6756 0.0277028 17.7093 0.0396994 17.7375 0.0604473C17.7658 0.0811953 17.7873 0.109782 17.7995 0.14266C17.8116 0.175539 17.8139 0.211263 17.8059 0.245401C17.798 0.27954 17.7802 0.31059 17.7547 0.3347C14.9759 3.64797 12.9729 9.05248 12.9729 15.5Z" fill="#004282"/>
<path d="M5.74439 15.5C5.74439 21.9345 7.88232 27.3546 10.6974 30.6653C10.7219 30.6908 10.7384 30.7229 10.7452 30.7576C10.7519 30.7923 10.7485 30.8282 10.7354 30.861C10.7222 30.8939 10.6999 30.9222 10.6711 30.9427C10.6423 30.9632 10.6082 30.975 10.5729 30.9766C10.054 31 9.56101 31 9.04988 31C8.4687 31 7.89011 30.9844 7.462 30.9611C6.71996 30.9412 5.99461 30.7365 5.3517 30.3654C4.7088 29.9944 4.16867 29.4687 3.7803 28.8361C1.36734 25.1414 0 20.4323 0 15.5C0 10.5236 1.36734 5.85855 3.7803 2.16647C4.16819 1.53323 4.70814 1.00693 5.3511 0.635382C5.99407 0.263831 6.71967 0.0588021 7.462 0.0389186C7.89011 0.0155675 8.4687 0 9.04988 0C9.5688 0 10.0566 0 10.5729 0.0233512C10.6082 0.0249981 10.6423 0.0367733 10.6711 0.0572713C10.6999 0.0777692 10.7222 0.106124 10.7354 0.13895C10.7485 0.171777 10.7519 0.207689 10.7452 0.242399C10.7384 0.277109 10.7219 0.309151 10.6974 0.3347C7.88232 3.64797 5.74439 9.01875 5.74439 15.5Z" fill="#004282"/>
<path d="M20.2014 15.5C20.2014 21.9683 22.0721 27.3832 24.6122 30.6964C24.6294 30.7228 24.6394 30.7532 24.6413 30.7846C24.6432 30.816 24.6369 30.8474 24.6231 30.8756C24.6092 30.9039 24.5882 30.9281 24.5622 30.9458C24.5362 30.9635 24.506 30.9741 24.4747 30.9766C23.9194 30.9948 23.1774 31 22.6273 31C22.0098 31 21.5091 31 21.1251 30.9611C19.8278 30.8651 18.668 30.3124 17.8066 28.8361C15.6531 25.1414 14.4648 20.4297 14.4648 15.5C14.4648 10.5703 15.6505 5.85855 17.804 2.16647C18.6654 0.687563 19.8382 0.134918 21.1225 0.0389186C21.5065 0 22.0072 0 22.6247 0C23.1826 0 23.922 0 24.4721 0.0259458C24.5034 0.0279906 24.5336 0.0382299 24.5597 0.0556375C24.5858 0.0730451 24.6069 0.0970094 24.6208 0.125129C24.6347 0.153248 24.641 0.184534 24.6391 0.215851C24.6371 0.247169 24.6269 0.277417 24.6096 0.303565C22.0721 3.61684 20.1988 9.03172 20.1988 15.5" fill="#004282"/>
<path d="M34.5312 18.5512C35.1565 18.5512 35.5405 19.0001 35.4238 19.7681C35.0003 22.9564 33.9689 26.0339 32.3855 28.8335C31.5241 30.3124 30.3514 30.8651 29.0645 30.9611C28.6805 30.9896 28.1823 31 27.5648 31C27.0044 31 26.2675 31 25.7175 30.9766C25.6861 30.9741 25.6559 30.9635 25.6299 30.9458C25.6039 30.9281 25.5829 30.9039 25.5691 30.8756C25.5552 30.8474 25.5489 30.816 25.5508 30.7846C25.5527 30.7532 25.5628 30.7228 25.5799 30.6964C27.7049 27.9202 29.3628 23.6677 29.8454 18.5538L34.5312 18.5512Z" fill="#004282"/>
<path d="M41.7415 18.5512C42.3668 18.5512 42.7586 18.9793 42.6367 19.7681C42.1795 22.9874 41.0535 26.0755 39.3312 28.8335C38.9486 29.4664 38.4131 29.9929 37.7738 30.3647C37.1346 30.7365 36.4121 30.9416 35.6728 30.9611C35.2447 30.987 34.7647 31 34.1835 31C33.6646 31 33.0627 31 32.549 30.9741C32.5139 30.9723 32.4802 30.9603 32.452 30.9396C32.4237 30.9188 32.4022 30.8902 32.39 30.8573C32.3779 30.8245 32.3756 30.7887 32.3836 30.7546C32.3915 30.7205 32.4094 30.6894 32.4348 30.6653C34.7699 27.8917 36.5446 23.6599 37.0635 18.5538L41.7415 18.5512Z" fill="#004282"/>
<path d="M48.9466 18.5512C49.5745 18.5512 49.9845 19.0001 49.8444 19.7681C49.3409 22.9956 48.171 26.0829 46.4092 28.8335C46.0213 29.4668 45.4813 29.9931 44.8383 30.3646C44.1954 30.7362 43.4698 30.9412 42.7274 30.9611C42.2993 30.987 41.7208 31 41.137 31C40.6181 31 40.1303 31 39.6166 30.9766C39.5812 30.975 39.5471 30.9632 39.5183 30.9427C39.4895 30.9222 39.4672 30.8939 39.4541 30.861C39.441 30.8282 39.4376 30.7923 39.4443 30.7576C39.451 30.7229 39.4676 30.6908 39.492 30.6653C41.8505 27.8891 43.7341 23.6599 44.2816 18.5538L48.9466 18.5512Z" fill="#004282"/>
<path d="M93.7498 21.1354C93.7498 25.9094 91.1189 28.696 85.9272 28.696C80.7354 28.696 78.0967 25.9094 78.0967 21.1354V9.85939C78.0967 5.08537 80.7276 2.2988 85.9168 2.2988C91.106 2.2988 93.7498 5.09056 93.7498 9.85939V21.1354ZM88.0236 9.49615C88.0236 7.34525 86.7263 6.83412 85.9272 6.83412C85.128 6.83412 83.8333 7.35303 83.8333 9.49615V21.5039C83.8333 23.6548 85.1306 24.1659 85.9272 24.1659C86.7237 24.1659 88.0236 23.647 88.0236 21.5039V9.49615Z" fill="#004282"/>
<path d="M75.3672 21.1354C75.3672 25.9094 72.7363 28.696 67.5472 28.696C62.358 28.696 59.7245 25.9094 59.7245 21.1354V9.85939C59.7245 5.08537 62.358 2.2988 67.5472 2.2988C72.7363 2.2988 75.3672 5.09056 75.3672 9.85939V10.6378C75.3639 10.8762 75.2677 11.1039 75.0991 11.2725C74.9305 11.4411 74.7028 11.5373 74.4643 11.5407H69.641V9.49615C69.641 7.34525 68.3437 6.83412 67.5472 6.83412C66.7507 6.83412 65.4534 7.35303 65.4534 9.49615V21.5039C65.4534 23.6548 66.7507 24.1659 67.5472 24.1659C68.3437 24.1659 69.641 23.647 69.641 21.5039V18.0116H74.4643C74.5838 18.0112 74.7022 18.0344 74.8126 18.0799C74.9231 18.1254 75.0235 18.1923 75.1081 18.2766C75.1927 18.361 75.2599 18.4612 75.3057 18.5715C75.3515 18.6819 75.375 18.8002 75.375 18.9197L75.3672 21.1354Z" fill="#004282"/>
<path d="M167.257 21.1354C167.257 25.9094 164.626 28.696 159.437 28.696C154.248 28.696 151.614 25.9094 151.614 21.1354V9.85939C151.614 5.08537 154.245 2.2988 159.437 2.2988C164.628 2.2988 167.257 5.09056 167.257 9.85939V21.1354ZM161.531 9.49615C161.531 7.34525 160.233 6.83412 159.437 6.83412C158.64 6.83412 157.34 7.35303 157.34 9.49615V21.5039C157.34 23.6548 158.638 24.1659 159.437 24.1659C160.236 24.1659 161.531 23.647 161.531 21.5039V9.49615Z" fill="#004282"/>
<path d="M148.879 21.1354C148.879 25.9094 146.248 28.696 141.059 28.696C135.87 28.696 133.237 25.9094 133.237 21.1354V9.85939C133.237 5.08537 135.868 2.2988 141.059 2.2988C146.251 2.2988 148.879 5.09056 148.879 9.85939V10.6378C148.879 10.8793 148.783 11.1108 148.612 11.2819C148.442 11.4529 148.21 11.5497 147.969 11.5511H143.153V9.49615C143.153 7.34525 141.856 6.83412 141.059 6.83412C140.263 6.83412 138.966 7.35303 138.966 9.49615V21.5039C138.966 23.6548 140.263 24.1659 141.059 24.1659C141.856 24.1659 143.153 23.647 143.153 21.5039V18.0116H147.969C148.088 18.0112 148.207 18.0344 148.317 18.0799C148.427 18.1254 148.528 18.1923 148.613 18.2766C148.697 18.361 148.764 18.4612 148.81 18.5715C148.856 18.6819 148.879 18.8002 148.879 18.9197V21.1354Z" fill="#004282"/>
<path d="M106.398 18.9404V21.5064C106.398 23.6573 105.101 24.1685 104.305 24.1685C103.508 24.1685 102.211 23.6496 102.211 21.5064V9.49356C102.211 7.34525 103.508 6.83412 104.305 6.83412C105.101 6.83412 106.398 7.35303 106.398 9.49356V11.5407H111.214C111.454 11.54 111.684 11.4449 111.854 11.2759C112.025 11.107 112.122 10.8777 112.125 10.6378V9.85939C112.125 5.09056 109.491 2.30399 104.302 2.30399C99.1128 2.30399 96.4845 5.09056 96.4845 9.85939V21.1354C96.4845 25.9068 99.1154 28.696 104.305 28.696C109.494 28.696 112.125 25.9068 112.125 21.1354V15.2717C112.125 15.152 112.102 15.0334 112.056 14.9228C112.01 14.8121 111.943 14.7116 111.859 14.627C111.774 14.5423 111.673 14.4753 111.563 14.4296C111.452 14.384 111.334 14.3606 111.214 14.361H104.302V18.0271C104.302 18.1471 104.325 18.2661 104.371 18.377C104.417 18.488 104.484 18.5888 104.569 18.6737C104.654 18.7586 104.754 18.8258 104.865 18.8716C104.976 18.9174 105.095 18.9408 105.215 18.9404H106.398Z" fill="#004282"/>
<path d="M129.591 16.639C129.711 16.6394 129.829 16.6161 129.94 16.5706C130.05 16.5252 130.151 16.4583 130.235 16.374C130.32 16.2896 130.387 16.1894 130.433 16.079C130.478 15.9687 130.502 15.8504 130.502 15.7309V9.85939C130.502 5.08537 127.871 2.2988 122.682 2.2988C117.493 2.2988 114.862 5.09056 114.862 9.85939V21.1354C114.862 25.9094 117.493 28.696 122.682 28.696C127.871 28.696 130.507 25.9094 130.507 21.1354V20.3752C130.508 20.2546 130.484 20.1352 130.438 20.0237C130.392 19.9123 130.324 19.811 130.239 19.7259C130.153 19.6407 130.052 19.5733 129.94 19.5276C129.829 19.4818 129.709 19.4586 129.589 19.4593H124.776V21.5039C124.776 23.6548 123.479 24.1659 122.682 24.1659C121.885 24.1659 120.588 23.647 120.588 21.5039V16.6364L129.591 16.639ZM120.588 9.49615C120.588 7.34525 121.885 6.83412 122.682 6.83412C123.479 6.83412 124.776 7.35303 124.776 9.49615V12.0544H120.588V9.49615Z" fill="#004282"/>
</svg>
