<svg width="38" height="38" viewBox="0 0 38 38" fill="none" xmlns="http://www.w3.org/2000/svg">
<path d="M14.28 30H6C4.93913 30 3.92172 29.5786 3.17157 28.8284C2.42143 28.0783 2 27.0609 2 26V10C2 8.93913 2.42143 7.92172 3.17157 7.17157C3.92172 6.42143 4.93913 6 6 6H29C30.0609 6 31.0783 6.42143 31.8284 7.17157C32.5786 7.92172 33 8.93913 33 10V11C33 11.2652 32.8946 11.5196 32.7071 11.7071C32.5196 11.8946 32.2652 12 32 12C31.7348 12 31.4804 11.8946 31.2929 11.7071C31.1054 11.5196 31 11.2652 31 11V10C31 9.46957 30.7893 8.96086 30.4142 8.58579C30.0391 8.21071 29.5304 8 29 8H6C5.46957 8 4.96086 8.21071 4.58579 8.58579C4.21071 8.96086 4 9.46957 4 10V26C4 26.5304 4.21071 27.0391 4.58579 27.4142C4.96086 27.7893 5.46957 28 6 28H14.28C14.5452 28 14.7996 28.1054 14.9871 28.2929C15.1746 28.4804 15.28 28.7348 15.28 29C15.28 29.2652 15.1746 29.5196 14.9871 29.7071C14.7996 29.8946 14.5452 30 14.28 30Z" fill="#001E62"/>
<path d="M14 33H9C8.73478 33 8.48043 32.8946 8.29289 32.7071C8.10536 32.5196 8 32.2652 8 32C8 31.7348 8.10536 31.4804 8.29289 31.2929C8.48043 31.1054 8.73478 31 9 31H14C14.2652 31 14.5196 31.1054 14.7071 31.2929C14.8946 31.4804 15 31.7348 15 32C15 32.2652 14.8946 32.5196 14.7071 32.7071C14.5196 32.8946 14.2652 33 14 33Z" fill="#001E62"/>
<path d="M13 13H8C7.73478 13 7.48043 12.8946 7.29289 12.7071C7.10536 12.5196 7 12.2652 7 12C7 11.7348 7.10536 11.4804 7.29289 11.2929C7.48043 11.1054 7.73478 11 8 11H13C13.2652 11 13.5196 11.1054 13.7071 11.2929C13.8946 11.4804 14 11.7348 14 12C14 12.2652 13.8946 12.5196 13.7071 12.7071C13.5196 12.8946 13.2652 13 13 13Z" fill="#FF6D70"/>
<path d="M25 33H21C20.2044 33 19.4413 32.6839 18.8787 32.1213C18.3161 31.5587 18 30.7956 18 30V17C18 16.2044 18.3161 15.4413 18.8787 14.8787C19.4413 14.3161 20.2044 14 21 14H31C31.7956 14 32.5587 14.3161 33.1213 14.8787C33.6839 15.4413 34 16.2044 34 17V18C34 18.2652 33.8946 18.5196 33.7071 18.7071C33.5196 18.8946 33.2652 19 33 19C32.7348 19 32.4804 18.8946 32.2929 18.7071C32.1054 18.5196 32 18.2652 32 18V17C32 16.7348 31.8946 16.4804 31.7071 16.2929C31.5196 16.1054 31.2652 16 31 16H21C20.7348 16 20.4804 16.1054 20.2929 16.2929C20.1054 16.4804 20 16.7348 20 17V30C20 30.2652 20.1054 30.5196 20.2929 30.7071C20.4804 30.8946 20.7348 31 21 31H25C25.2652 31 25.5196 31.1054 25.7071 31.2929C25.8946 31.4804 26 31.7348 26 32C26 32.2652 25.8946 32.5196 25.7071 32.7071C25.5196 32.8946 25.2652 33 25 33Z" fill="#001E62"/>
<path d="M33 33H31C30.2044 33 29.4413 32.6839 28.8787 32.1213C28.3161 31.5587 28 30.7956 28 30V24C28 23.2044 28.3161 22.4413 28.8787 21.8787C29.4413 21.3161 30.2044 21 31 21H33C33.7956 21 34.5587 21.3161 35.1213 21.8787C35.6839 22.4413 36 23.2044 36 24V30C36 30.7956 35.6839 31.5587 35.1213 32.1213C34.5587 32.6839 33.7956 33 33 33ZM31 23C30.7348 23 30.4804 23.1054 30.2929 23.2929C30.1054 23.4804 30 23.7348 30 24V30C30 30.2652 30.1054 30.5196 30.2929 30.7071C30.4804 30.8946 30.7348 31 31 31H33C33.2652 31 33.5196 30.8946 33.7071 30.7071C33.8946 30.5196 34 30.2652 34 30V24C34 23.7348 33.8946 23.4804 33.7071 23.2929C33.5196 23.1054 33.2652 23 33 23H31Z" fill="#001E62"/>
<path d="M26.0002 19.9999C25.8686 20.0007 25.7382 19.9754 25.6163 19.9257C25.4945 19.8759 25.3837 19.8026 25.2902 19.7099C25.2019 19.6127 25.1309 19.5011 25.0802 19.3799C25.0273 19.2602 25 19.1308 25 18.9999C25 18.869 25.0273 18.7396 25.0802 18.6199C25.1251 18.4958 25.1968 18.3831 25.2901 18.2898C25.3834 18.1965 25.4961 18.1248 25.6202 18.0799C25.8023 18.0033 26.0031 17.9824 26.197 18.0198C26.391 18.0571 26.5696 18.1511 26.7102 18.2899C26.7986 18.3871 26.8696 18.4987 26.9202 18.6199C26.9731 18.7396 27.0005 18.869 27.0005 18.9999C27.0005 19.1308 26.9731 19.2602 26.9202 19.3799C26.8696 19.5011 26.7986 19.6127 26.7102 19.7099C26.6168 19.8026 26.506 19.8759 26.3841 19.9257C26.2623 19.9754 26.1318 20.0007 26.0002 19.9999Z" fill="#FF6D70"/>
</svg>
