<svg width="24" height="24" viewBox="0 0 24 24" fill="none" xmlns="http://www.w3.org/2000/svg">
<path d="M14.3424 12.8591C15.0192 12.3648 15.5223 11.6691 15.7798 10.8715C16.0373 10.074 16.0359 9.21549 15.7759 8.41875C15.516 7.62201 15.0106 6.92791 14.3323 6.43572C13.6539 5.94352 12.8374 5.67847 11.9993 5.67847C11.1612 5.67847 10.3446 5.94352 9.66627 6.43572C8.98789 6.92791 8.48263 7.62201 8.2226 8.41875C7.96265 9.21549 7.96126 10.074 8.21875 10.8715C8.47625 11.6691 8.9793 12.3648 9.6561 12.8591C8.70305 13.2703 7.87568 13.9262 7.25787 14.7603C6.63999 15.5944 6.25376 16.577 6.13821 17.6086C6.12767 17.6921 6.13393 17.7769 6.15662 17.8579C6.17931 17.939 6.21798 18.0147 6.27035 18.0806C6.32269 18.1465 6.38774 18.2013 6.46157 18.2417C6.5354 18.2821 6.61656 18.3074 6.70031 18.316C6.78286 18.3247 6.86629 18.3171 6.94587 18.2936C7.02551 18.2701 7.09966 18.2311 7.1642 18.1789C7.22869 18.1267 7.28231 18.0623 7.32191 17.9894C7.36151 17.9164 7.38639 17.8364 7.39505 17.7539C7.52743 16.6257 8.06938 15.5853 8.91816 14.8303C9.76688 14.0753 10.8633 13.6583 11.9993 13.6583C13.1352 13.6583 14.2316 14.0753 15.0804 14.8303C15.9291 15.5853 16.4711 16.6257 16.6035 17.7539C16.6206 17.909 16.6947 18.0524 16.8113 18.1562C16.928 18.26 17.0789 18.3169 17.235 18.316H17.3045C17.3871 18.3073 17.4671 18.2824 17.54 18.2428C17.613 18.2032 17.6773 18.1496 17.7296 18.0851C17.7818 18.0206 17.8208 17.9464 17.8443 17.8668C17.8678 17.7872 17.8754 17.7038 17.8666 17.6212C17.752 16.587 17.3655 15.6015 16.7465 14.7651C16.1275 13.9286 15.298 13.271 14.3424 12.8591ZM9.28978 9.65702C9.29105 9.12138 9.45103 8.59818 9.74951 8.15342C10.048 7.70873 10.4715 7.36243 10.9668 7.15831C11.462 6.95418 12.0065 6.90144 12.5317 7.00666C13.0569 7.11195 13.539 7.37052 13.9174 7.74965C14.2957 8.12885 14.5531 8.61163 14.6571 9.13704C14.7612 9.66245 14.7072 10.2069 14.5019 10.7017C14.2966 11.1964 13.9493 11.6191 13.5039 11.9166C13.0585 12.214 12.5349 12.3728 11.9993 12.3728C11.2801 12.3711 10.591 12.0842 10.083 11.5751C9.57507 11.066 9.28978 10.3762 9.28978 9.65702Z" fill="#001E62"/>
<path d="M16.3647 3.63171C16.2618 3.63017 16.1608 3.60351 16.0706 3.55404C15.9803 3.50458 15.9036 3.43381 15.8469 3.34789C15.7902 3.26197 15.7554 3.16351 15.7455 3.06107C15.7356 2.95863 15.7509 2.85532 15.79 2.76013C15.8174 2.67513 15.8602 2.59591 15.9163 2.52645C15.9777 2.47066 16.0482 2.4258 16.1247 2.39381C16.2785 2.33064 16.451 2.33064 16.6047 2.39381C16.6823 2.42388 16.7531 2.46895 16.8131 2.52645C16.869 2.58783 16.9138 2.65833 16.9458 2.73487C16.9851 2.83055 17.0003 2.93443 16.9901 3.03736C16.9798 3.1403 16.9445 3.23914 16.8871 3.32521C16.8298 3.41128 16.7521 3.48194 16.661 3.53098C16.5699 3.58001 16.4682 3.60593 16.3647 3.60645V3.63171Z" fill="#FF6D70"/>
<path d="M18.8905 9.94743C18.8073 9.94787 18.725 9.93195 18.648 9.9005C18.5711 9.86911 18.5011 9.82282 18.442 9.76427C18.3836 9.70522 18.3372 9.63524 18.3058 9.55831C18.2744 9.48132 18.2584 9.39896 18.2589 9.31585C18.2558 9.27379 18.2558 9.2316 18.2589 9.18953C18.2658 9.14993 18.2786 9.11166 18.2968 9.07585C18.3106 9.03562 18.3297 8.99734 18.3536 8.96216L18.442 8.84216L18.5368 8.76637C18.572 8.74244 18.6102 8.72336 18.6505 8.70953C18.6881 8.69027 18.7287 8.67745 18.7705 8.67164C18.8915 8.64606 19.0175 8.65932 19.1305 8.70953C19.208 8.7396 19.2788 8.78463 19.3389 8.84216C19.366 8.87216 19.3914 8.90381 19.4147 8.9369C19.4386 8.97208 19.4577 9.01035 19.4715 9.05059C19.4898 9.0864 19.5025 9.12467 19.5094 9.16427C19.5125 9.20633 19.5125 9.24852 19.5094 9.29059C19.5094 9.45808 19.4429 9.61869 19.3244 9.73718C19.206 9.8556 19.0453 9.92217 18.8778 9.92217L18.8905 9.94743Z" fill="#FF6D70"/>
<path d="M12.0007 22.7367C9.15311 22.7752 6.40688 21.6809 4.36606 19.6946C2.32527 17.7083 1.15712 14.9927 1.1186 12.1451C1.08007 9.29748 2.17432 6.55125 4.16063 4.51044C6.14693 2.46965 8.86258 1.3015 11.7102 1.26297C12.4313 1.24382 13.1525 1.29458 13.8639 1.41455C13.9462 1.4283 14.0249 1.4582 14.0955 1.50255C14.1662 1.5469 14.2273 1.60481 14.2755 1.67292C14.3237 1.74104 14.3578 1.81802 14.3761 1.89942C14.3943 1.98082 14.3962 2.06503 14.3818 2.14718C14.3673 2.2289 14.3369 2.30695 14.2921 2.37689C14.2475 2.44683 14.1895 2.50728 14.1214 2.5548C14.0534 2.6023 13.9767 2.63594 13.8956 2.65378C13.8146 2.67162 13.7308 2.67331 13.6491 2.65876C13.0235 2.55199 12.3888 2.50755 11.7544 2.52613C9.88082 2.57558 8.06401 3.17964 6.53383 4.2619C5.00364 5.34416 3.82886 6.85599 3.15811 8.60609C2.48736 10.3562 2.35078 12.2659 2.76567 14.0936C3.18055 15.9214 4.12825 17.585 5.48885 18.874C6.84943 20.163 8.56183 21.0194 10.4093 21.3349C12.2568 21.6505 14.1564 21.411 15.8676 20.6467C17.5789 19.8824 19.0251 18.6277 20.0232 17.0413C21.0212 15.4549 21.5262 13.6081 21.4744 11.7346C21.4648 11.3111 21.4247 10.889 21.3544 10.4714C21.327 10.3064 21.3661 10.1373 21.4632 10.0012C21.5603 9.86502 21.7074 9.77294 21.8723 9.74508C21.9544 9.73157 22.0384 9.73441 22.1194 9.75348C22.2005 9.77256 22.2769 9.80742 22.3445 9.85618C22.412 9.90487 22.4691 9.96645 22.5128 10.0374C22.5564 10.1082 22.5855 10.1871 22.5986 10.2693C22.6787 10.7433 22.7251 11.2224 22.7376 11.703C22.7771 13.1131 22.5384 14.5172 22.035 15.835C21.5316 17.1528 20.7735 18.3585 19.8039 19.3832C18.8344 20.4078 17.6724 21.2314 16.3844 21.8068C15.0965 22.3823 13.7077 22.6982 12.2976 22.7367H12.0007Z" fill="#001E62"/>
<path d="M19.7121 2.52637L18.8721 4.21268L17.1858 5.05268L18.8721 5.89268L19.7121 7.579L20.5585 5.89268L22.2385 5.05268L20.5585 4.21268L19.7121 2.52637Z" fill="#FF6D70"/>
</svg>
