<svg width="17" height="17" viewBox="0 0 17 17" fill="none" xmlns="http://www.w3.org/2000/svg">
<path d="M10.0617 8.78166C10.5129 8.4521 10.8483 7.98831 11.0199 7.45661C11.1915 6.9249 11.1906 6.35257 11.0173 5.82141C10.844 5.29025 10.5071 4.82751 10.0549 4.49939C9.60266 4.17125 9.05828 3.99455 8.49955 3.99455C7.94081 3.99455 7.39643 4.17125 6.94422 4.49939C6.49197 4.82751 6.15513 5.29025 5.98178 5.82141C5.80847 6.35257 5.80755 6.9249 5.97921 7.45661C6.15087 7.98831 6.48624 8.4521 6.93744 8.78166C6.30207 9.05576 5.75049 9.49307 5.33862 10.0491C4.9267 10.6052 4.66921 11.2603 4.59218 11.948C4.58515 12.0036 4.58933 12.0602 4.60446 12.1142C4.61958 12.1682 4.64536 12.2187 4.68027 12.2627C4.71517 12.3066 4.75854 12.3431 4.80776 12.37C4.85698 12.397 4.91108 12.4138 4.96691 12.4196C5.02195 12.4254 5.07757 12.4203 5.13062 12.4046C5.18371 12.3889 5.23315 12.363 5.27618 12.3282C5.31917 12.2934 5.35491 12.2504 5.38131 12.2018C5.40771 12.1532 5.4243 12.0998 5.43007 12.0448C5.51832 11.2927 5.87963 10.5991 6.44548 10.0958C7.01129 9.59244 7.74224 9.31442 8.49955 9.31442C9.25685 9.31442 9.9878 9.59244 10.5536 10.0958C11.1195 10.5991 11.4808 11.2927 11.569 12.0448C11.5805 12.1483 11.6298 12.2438 11.7076 12.313C11.7854 12.3822 11.886 12.4202 11.9901 12.4196H12.0364C12.0914 12.4138 12.1448 12.3972 12.1934 12.3708C12.242 12.3444 12.2849 12.3086 12.3198 12.2657C12.3546 12.2226 12.3806 12.1732 12.3962 12.1201C12.4119 12.067 12.417 12.0114 12.4111 11.9564C12.3347 11.2669 12.0771 10.6099 11.6644 10.0523C11.2517 9.49467 10.6987 9.05627 10.0617 8.78166ZM6.69323 6.64692C6.69407 6.28983 6.80072 5.94103 6.99971 5.64452C7.1987 5.34806 7.48106 5.1172 7.81121 4.98111C8.14136 4.84503 8.50439 4.80987 8.85454 4.88002C9.20464 4.95021 9.52607 5.12259 9.77828 5.37534C10.0305 5.62814 10.2021 5.95 10.2715 6.30027C10.3408 6.65054 10.3048 7.01353 10.168 7.34334C10.0311 7.67315 9.79959 7.95501 9.50266 8.15332C9.20569 8.3516 8.85664 8.45745 8.49955 8.45745C8.02009 8.45631 7.56068 8.26507 7.22203 7.92566C6.88342 7.58625 6.69323 7.12638 6.69323 6.64692Z" fill="white"/>
<path d="M11.4098 2.62998C11.3412 2.62895 11.2738 2.61118 11.2137 2.5782C11.1535 2.54523 11.1023 2.49804 11.0645 2.44076C11.0268 2.38349 11.0036 2.31785 10.997 2.24956C10.9903 2.18126 11.0005 2.11239 11.0266 2.04893C11.0449 1.99226 11.0734 1.93945 11.1108 1.89314C11.1517 1.85595 11.1988 1.82604 11.2498 1.80472C11.3523 1.7626 11.4673 1.7626 11.5698 1.80472C11.6215 1.82476 11.6687 1.85481 11.7087 1.89314C11.7459 1.93407 11.7758 1.98106 11.7971 2.03209C11.8234 2.09588 11.8335 2.16512 11.8267 2.23375C11.8198 2.30237 11.7963 2.36827 11.758 2.42565C11.7198 2.48303 11.668 2.53013 11.6073 2.56283C11.5466 2.59552 11.4787 2.61279 11.4098 2.61314V2.62998Z" fill="white"/>
<path d="M13.0936 6.84062C13.0382 6.84092 12.9833 6.83031 12.932 6.80934C12.8807 6.78841 12.834 6.75755 12.7947 6.71852C12.7557 6.67915 12.7248 6.6325 12.7039 6.58121C12.6829 6.52989 12.6723 6.47498 12.6726 6.41957C12.6705 6.39153 12.6705 6.3634 12.6726 6.33536C12.6772 6.30896 12.6857 6.28344 12.6978 6.25957C12.7071 6.23275 12.7198 6.20723 12.7357 6.18378L12.7947 6.10378L12.8578 6.05325C12.8813 6.0373 12.9068 6.02458 12.9336 6.01536C12.9587 6.00252 12.9857 5.99397 13.0136 5.9901C13.0943 5.97304 13.1783 5.98189 13.2536 6.01536C13.3053 6.0354 13.3525 6.06542 13.3926 6.10378C13.4107 6.12378 13.4276 6.14488 13.4431 6.16694C13.4591 6.19039 13.4718 6.21591 13.481 6.24273C13.4932 6.2666 13.5017 6.29212 13.5063 6.31852C13.5083 6.34656 13.5083 6.37469 13.5063 6.40273C13.5063 6.51439 13.4619 6.62147 13.3829 6.70045C13.304 6.7794 13.1969 6.82378 13.0852 6.82378L13.0936 6.84062Z" fill="white"/>
<path d="M8.50051 15.3668C6.60211 15.3925 4.77129 14.663 3.41075 13.3388C2.05022 12.0146 1.27146 10.2042 1.24577 8.30578C1.22009 6.40738 1.94959 4.57656 3.27379 3.21602C4.598 1.85549 6.40843 1.07673 8.30683 1.05104C8.78755 1.03827 9.26839 1.07211 9.74262 1.15209C9.79748 1.16126 9.84995 1.1812 9.89706 1.21076C9.94418 1.24033 9.98494 1.27893 10.0171 1.32434C10.0491 1.36975 10.0719 1.42108 10.0841 1.47534C10.0963 1.52961 10.0975 1.58575 10.0879 1.64052C10.0782 1.69499 10.0579 1.74703 10.0281 1.79366C9.99837 1.84028 9.95971 1.88058 9.91432 1.91226C9.86898 1.94393 9.81782 1.96636 9.7638 1.97825C9.70978 1.99014 9.6539 1.99127 9.59946 1.98157C9.18237 1.91038 8.75925 1.88076 8.3363 1.89315C7.08725 1.92611 5.87605 2.32882 4.85592 3.05033C3.8358 3.77184 3.05261 4.77972 2.60544 5.94646C2.15828 7.11319 2.06723 8.38633 2.34382 9.60481C2.62041 10.8233 3.25221 11.9324 4.15927 12.7917C5.06632 13.651 6.20792 14.222 7.43959 14.4324C8.67121 14.6428 9.93761 14.483 11.0785 13.9735C12.2193 13.464 13.1835 12.6275 13.8488 11.5699C14.5142 10.5123 14.8508 9.28111 14.8163 8.0321C14.8099 7.74983 14.7832 7.46839 14.7363 7.18999C14.718 7.08001 14.7441 6.96726 14.8088 6.87652C14.8736 6.78574 14.9716 6.72435 15.0816 6.70578C15.1363 6.69677 15.1923 6.69867 15.2463 6.71138C15.3003 6.7241 15.3513 6.74734 15.3963 6.77985C15.4414 6.81231 15.4795 6.85336 15.5086 6.90065C15.5376 6.94789 15.5571 7.00043 15.5658 7.05526C15.6192 7.37126 15.6501 7.69067 15.6584 8.01105C15.6848 8.95113 15.5256 9.88717 15.19 10.7657C14.8545 11.6443 14.349 12.4481 13.7027 13.1312C13.0563 13.8143 12.2817 14.3633 11.423 14.747C10.5643 15.1306 9.63849 15.3412 8.69841 15.3668H8.50051Z" fill="white"/>
<path d="M13.6414 1.89319L13.0814 3.0174L11.9572 3.5774L13.0814 4.1374L13.6414 5.26161L14.2056 4.1374L15.3256 3.5774L14.2056 3.0174L13.6414 1.89319Z" fill="white"/>
</svg>
