<svg width="89" height="88" viewBox="0 0 89 88" fill="none" xmlns="http://www.w3.org/2000/svg">
<path d="M69.5 61.3198H19.5C17.3783 61.3198 15.3434 60.477 13.8431 58.9767C12.3429 57.4764 11.5 55.4416 11.5 53.3198V21.3198C11.5 19.1981 12.3429 17.1633 13.8431 15.663C15.3434 14.1627 17.3783 13.3198 19.5 13.3198H44.5C45.0304 13.3198 45.5391 13.5305 45.9142 13.9056C46.2893 14.2807 46.5 14.7894 46.5 15.3198C46.5 15.8503 46.2893 16.359 45.9142 16.734C45.5391 17.1091 45.0304 17.3198 44.5 17.3198H19.5C18.4391 17.3198 17.4217 17.7413 16.6716 18.4914C15.9214 19.2415 15.5 20.259 15.5 21.3198V53.3198C15.5 54.3807 15.9214 55.3981 16.6716 56.1483C17.4217 56.8984 18.4391 57.3198 19.5 57.3198H69.5C70.5609 57.3198 71.5783 56.8984 72.3284 56.1483C73.0786 55.3981 73.5 54.3807 73.5 53.3198V44.3198C73.5 43.7894 73.7107 43.2807 74.0858 42.9056C74.4609 42.5305 74.9696 42.3198 75.5 42.3198C76.0304 42.3198 76.5391 42.5305 76.9142 42.9056C77.2893 43.2807 77.5 43.7894 77.5 44.3198V53.3198C77.5 55.4416 76.6571 57.4764 75.1569 58.9767C73.6566 60.477 71.6217 61.3198 69.5 61.3198Z" fill="#001E62"/>
<path d="M83.37 69.27H5.5C4.96957 69.27 4.46086 69.0593 4.08579 68.6842C3.71071 68.3092 3.5 67.8005 3.5 67.27C3.5 66.7396 3.71071 66.2309 4.08579 65.8558C4.46086 65.4807 4.96957 65.27 5.5 65.27H83.37C83.9004 65.27 84.4091 65.4807 84.7842 65.8558C85.1593 66.2309 85.37 66.7396 85.37 67.27C85.37 67.8005 85.1593 68.3092 84.7842 68.6842C84.4091 69.0593 83.9004 69.27 83.37 69.27Z" fill="#001E62"/>
<path d="M56.5905 44.5901L41.7705 38.0001C41.6796 37.9587 41.5782 37.9461 41.4799 37.964C41.3816 37.9818 41.2911 38.0293 41.2205 38.1001C41.1485 38.1718 41.0995 38.2635 41.0799 38.3633C41.0603 38.463 41.071 38.5664 41.1105 38.6601L47.7305 53.4801C47.7711 53.5677 47.836 53.6416 47.9177 53.6931C47.9993 53.7445 48.0941 53.7713 48.1905 53.7701C48.2935 53.7638 48.3921 53.7259 48.4726 53.6614C48.5532 53.597 48.6118 53.5092 48.6405 53.4101L50.4505 47.4101L56.5005 45.5201C56.5966 45.4897 56.6812 45.431 56.7433 45.3517C56.8054 45.2723 56.8421 45.1761 56.8486 45.0756C56.855 44.9751 56.831 44.8749 56.7796 44.7883C56.7282 44.7017 56.6519 44.6326 56.5605 44.5901H56.5905Z" fill="#FF6D70"/>
<path d="M29 26.3198C29 23.8345 26.9853 21.8198 24.5 21.8198C22.0147 21.8198 20 23.8345 20 26.3198C20 28.8051 22.0147 30.8198 24.5 30.8198C26.9853 30.8198 29 28.8051 29 26.3198Z" fill="#FF6D70"/>
<path d="M24.5 31.3198C23.5111 31.3198 22.5444 31.0266 21.7222 30.4772C20.8999 29.9278 20.259 29.1469 19.8806 28.2332C19.5022 27.3196 19.4031 26.3143 19.5961 25.3444C19.789 24.3745 20.2652 23.4836 20.9645 22.7843C21.6637 22.085 22.5546 21.6088 23.5246 21.4159C24.4945 21.223 25.4998 21.322 26.4134 21.7004C27.3271 22.0789 28.1079 22.7197 28.6574 23.542C29.2068 24.3642 29.5 25.3309 29.5 26.3198C29.5 27.6459 28.9732 28.9177 28.0355 29.8554C27.0979 30.793 25.8261 31.3198 24.5 31.3198ZM24.5 22.3198C23.7089 22.3198 22.9355 22.5544 22.2777 22.9939C21.6199 23.4335 21.1072 24.0582 20.8045 24.7891C20.5017 25.52 20.4225 26.3243 20.5769 27.1002C20.7312 27.8761 21.1122 28.5888 21.6716 29.1483C22.231 29.7077 22.9437 30.0886 23.7196 30.243C24.4956 30.3973 25.2998 30.3181 26.0307 30.0153C26.7616 29.7126 27.3864 29.1999 27.8259 28.5421C28.2654 27.8843 28.5 27.111 28.5 26.3198C28.5 25.259 28.0786 24.2415 27.3284 23.4914C26.5783 22.7413 25.5609 22.3198 24.5 22.3198Z" fill="#FF6D70"/>
<path d="M41.9102 30.8198H32.9102L37.4102 21.8198L41.9102 30.8198Z" fill="#FF6D70"/>
<path d="M41.9101 31.3187H32.9101C32.8253 31.3184 32.742 31.2962 32.6684 31.2541C32.5948 31.2121 32.5333 31.1516 32.4901 31.0787C32.448 31.0057 32.4258 30.923 32.4258 30.8387C32.4258 30.7544 32.448 30.6717 32.4901 30.5987L36.9901 21.5987C37.0364 21.5221 37.1017 21.4588 37.1796 21.4148C37.2576 21.3708 37.3456 21.3477 37.4351 21.3477C37.5246 21.3477 37.6126 21.3708 37.6905 21.4148C37.7685 21.4588 37.8338 21.5221 37.8801 21.5987L42.3801 30.5987C42.4222 30.6717 42.4444 30.7544 42.4444 30.8387C42.4444 30.923 42.4222 31.0057 42.3801 31.0787C42.3319 31.1585 42.2624 31.2233 42.1793 31.2658C42.0963 31.3082 42.003 31.3265 41.9101 31.3187ZM33.7201 30.3187H41.1101L37.4101 22.9387L33.7201 30.3187Z" fill="#FF6D70"/>
<path d="M30.5 40.3198H21.5C20.9696 40.3198 20.4609 40.1091 20.0858 39.734C19.7107 39.359 19.5 38.8503 19.5 38.3198C19.5 37.7894 19.7107 37.2807 20.0858 36.9056C20.4609 36.5305 20.9696 36.3198 21.5 36.3198H30.5C31.0304 36.3198 31.5391 36.5305 31.9142 36.9056C32.2893 37.2807 32.5 37.7894 32.5 38.3198C32.5 38.8503 32.2893 39.359 31.9142 39.734C31.5391 40.1091 31.0304 40.3198 30.5 40.3198Z" fill="#001E62"/>
<path d="M26.5 46.3198H21.5C20.9696 46.3198 20.4609 46.1091 20.0858 45.734C19.7107 45.359 19.5 44.8503 19.5 44.3198C19.5 43.7894 19.7107 43.2807 20.0858 42.9056C20.4609 42.5305 20.9696 42.3198 21.5 42.3198H26.5C27.0304 42.3198 27.5391 42.5305 27.9142 42.9056C28.2893 43.2807 28.5 43.7894 28.5 44.3198C28.5 44.8503 28.2893 45.359 27.9142 45.734C27.5391 46.1091 27.0304 46.3198 26.5 46.3198Z" fill="#001E62"/>
<path d="M66.9989 4.5H65.9989C63.6351 4.53217 61.3008 5.02962 59.1292 5.96393C56.9577 6.89824 54.9914 8.25111 53.3427 9.94532C50.013 13.3669 48.1789 17.9711 48.2439 22.745C48.3088 27.5189 50.2676 32.0715 53.6892 35.4012C57.1108 38.7309 61.715 40.565 66.4889 40.5C68.8526 40.5322 71.1996 40.0985 73.3958 39.2236C75.592 38.3487 77.5943 37.0499 79.2885 35.4012C80.9827 33.7525 82.3356 31.7862 83.2699 29.6147C84.2042 27.4431 84.7017 25.1088 84.7339 22.745C84.766 20.3812 84.3323 18.0342 83.4574 15.838C82.5826 13.6419 81.2837 11.6395 79.635 9.94532C77.9863 8.25111 76.0201 6.89824 73.8485 5.96393C71.677 5.02962 69.3427 4.53217 66.9789 4.5H66.9989ZM66.4989 36.5C64.0428 36.5048 61.6286 35.8633 59.4989 34.64V34.32C59.4989 32.4635 60.2364 30.683 61.5491 29.3703C62.8619 28.0575 64.6423 27.32 66.4989 27.32C68.3554 27.32 70.1358 28.0575 71.4486 29.3703C72.7614 30.683 73.4989 32.4635 73.4989 34.32V34.64C71.3691 35.8633 68.955 36.5048 66.4989 36.5ZM63.4989 20.32C63.4989 19.7267 63.6748 19.1466 64.0045 18.6533C64.3341 18.1599 64.8026 17.7754 65.3508 17.5484C65.899 17.3213 66.5022 17.2619 67.0841 17.3776C67.6661 17.4934 68.2006 17.7791 68.6202 18.1987C69.0397 18.6182 69.3255 19.1528 69.4412 19.7347C69.557 20.3167 69.4976 20.9199 69.2705 21.4681C69.0434 22.0162 68.6589 22.4848 68.1656 22.8144C67.6722 23.1441 67.0922 23.32 66.4989 23.32C65.7032 23.32 64.9401 23.0039 64.3775 22.4413C63.8149 21.8787 63.4989 21.1156 63.4989 20.32ZM77.1489 31.63C76.7856 30.1887 76.134 28.8359 75.2333 27.6534C74.3327 26.471 73.2018 25.4833 71.9089 24.75C72.7504 23.7251 73.2835 22.4822 73.4461 21.1661C73.6086 19.8499 73.394 18.5147 72.8271 17.3158C72.2603 16.1169 71.3645 15.1037 70.2442 14.3942C69.1238 13.6846 67.825 13.3079 66.4989 13.3079C65.1727 13.3079 63.8739 13.6846 62.7535 14.3942C61.6332 15.1037 60.7374 16.1169 60.1706 17.3158C59.6037 18.5147 59.3891 19.8499 59.5517 21.1661C59.7142 22.4822 60.2473 23.7251 61.0889 24.75C59.7959 25.4833 58.665 26.471 57.7644 27.6534C56.8637 28.8359 56.2121 30.1887 55.8489 31.63C54.1196 29.6215 52.996 27.1634 52.6087 24.5415C52.2214 21.9196 52.5863 19.2416 53.661 16.8189C54.7356 14.3962 56.4759 12.3284 58.6795 10.8557C60.883 9.38308 63.4593 8.56618 66.1089 8.5H66.8889C69.5384 8.56618 72.1147 9.38308 74.3182 10.8557C76.5218 12.3284 78.2621 14.3962 79.3367 16.8189C80.4114 19.2416 80.7763 21.9196 80.389 24.5415C80.0017 27.1634 78.8781 29.6215 77.1489 31.63Z" fill="#001E62"/>
</svg>
