<svg width="39" height="38" viewBox="0 0 39 38" fill="none" xmlns="http://www.w3.org/2000/svg">
<path d="M19.6667 36C19.5218 36.0007 19.3785 35.97 19.2467 35.91L18.4967 35.56C14.6707 33.784 11.4311 30.9531 9.15843 27.3997C6.88573 23.8462 5.6744 19.718 5.66675 15.5V8.91995C5.66708 8.78041 5.69661 8.64248 5.75345 8.51503C5.81028 8.38759 5.89316 8.27345 5.99675 8.17995C6.10058 8.08691 6.22272 8.0166 6.35532 7.97355C6.48792 7.93049 6.62807 7.91564 6.76675 7.92995C7.23191 7.97723 7.69919 8.00059 8.16675 7.99995C10.1958 7.99437 12.2012 7.56445 14.0543 6.7378C15.9073 5.91116 17.567 4.70608 18.9267 3.19995C19.0204 3.09683 19.1347 3.01444 19.2621 2.95806C19.3895 2.90168 19.5274 2.87256 19.6667 2.87256C19.806 2.87256 19.9439 2.90168 20.0713 2.95806C20.1987 3.01444 20.313 3.09683 20.4067 3.19995C21.7664 4.70608 23.4261 5.91116 25.2791 6.7378C27.1322 7.56445 29.1376 7.99437 31.1667 7.99995C31.6343 8.00059 32.1015 7.97723 32.5667 7.92995C32.7054 7.91564 32.8455 7.93049 32.9781 7.97355C33.1108 8.0166 33.2329 8.08691 33.3367 8.17995C33.4403 8.27345 33.5232 8.38759 33.58 8.51503C33.6368 8.64248 33.6664 8.78041 33.6667 8.91995V15.5C33.6591 19.718 32.4477 23.8462 30.175 27.3997C27.9023 30.9531 24.6627 33.784 20.8367 35.56L20.0867 35.91C19.9549 35.97 19.8116 36.0007 19.6667 36ZM7.66675 9.99995V15.5C7.67465 19.3369 8.7768 23.092 10.8438 26.3245C12.9109 29.5571 15.8571 32.133 19.3367 33.75L19.6667 33.9L19.9967 33.75C23.4763 32.133 26.4225 29.5571 28.4896 26.3245C30.5566 23.092 31.6588 19.3369 31.6667 15.5V9.99995H31.1667C26.8695 9.99085 22.7447 8.30866 19.6667 5.30995C16.5887 8.30866 12.4639 9.99085 8.16675 9.99995H7.66675Z" fill="#001E62"/>
<path d="M19.6667 26C19.2711 26 18.8845 25.8827 18.5556 25.6629C18.2267 25.4432 17.9703 25.1308 17.8189 24.7654C17.6676 24.3999 17.628 23.9978 17.7051 23.6098C17.7823 23.2219 17.9728 22.8655 18.2525 22.5858C18.5322 22.3061 18.8886 22.1156 19.2765 22.0384C19.6645 21.9613 20.0666 22.0009 20.4321 22.1522C20.7975 22.3036 21.1099 22.56 21.3296 22.8889C21.5494 23.2178 21.6667 23.6044 21.6667 24C21.6667 24.5304 21.456 25.0391 21.0809 25.4142C20.7058 25.7893 20.1971 26 19.6667 26Z" fill="#FF6D70"/>
<path d="M15.0573 21.4199C14.8398 21.417 14.6292 21.3433 14.4573 21.2099C14.2452 21.0507 14.1049 20.8138 14.0674 20.5513C14.0299 20.2887 14.0982 20.022 14.2573 19.8099C14.8882 18.9713 15.7053 18.2909 16.6442 17.8224C17.583 17.3538 18.618 17.1099 19.6673 17.1099C20.7167 17.1099 21.7516 17.3538 22.6905 17.8224C23.6294 18.2909 24.4465 18.9713 25.0773 19.8099C25.2365 20.022 25.3048 20.2887 25.2673 20.5513C25.2298 20.8138 25.0895 21.0507 24.8773 21.2099C24.6664 21.3701 24.4005 21.44 24.138 21.4044C23.8756 21.3688 23.6379 21.2305 23.4773 21.0199C23.034 20.4279 22.4589 19.9474 21.7976 19.6165C21.1362 19.2855 20.4069 19.1132 19.6673 19.1132C18.9278 19.1132 18.1984 19.2855 17.5371 19.6165C16.8758 19.9474 16.3006 20.4279 15.8573 21.0199C15.7642 21.1441 15.6434 21.2449 15.5045 21.3143C15.3657 21.3837 15.2126 21.4199 15.0573 21.4199Z" fill="#FF6D70"/>
<path d="M27.4459 18.3902C27.2949 18.3883 27.1463 18.3522 27.0112 18.2847C26.8761 18.2171 26.758 18.1199 26.6659 18.0002C25.8546 16.908 24.799 16.0208 23.5836 15.4096C22.3681 14.7984 21.0264 14.48 19.6659 14.48C18.3054 14.48 16.9638 14.7984 15.7483 15.4096C14.5328 16.0208 13.4772 16.908 12.6659 18.0002C12.5871 18.1052 12.4884 18.1937 12.3754 18.2606C12.2624 18.3276 12.1373 18.3716 12.0073 18.3901C11.8773 18.4087 11.745 18.4015 11.6177 18.3689C11.4905 18.3363 11.371 18.279 11.2659 18.2002C11.0537 18.041 10.9135 17.8041 10.876 17.5416C10.8385 17.279 10.9068 17.0123 11.0659 16.8002C12.0643 15.4673 13.3595 14.3853 14.8488 13.6401C16.3381 12.8948 17.9806 12.5068 19.6459 12.5068C21.3113 12.5068 22.9537 12.8948 24.443 13.6401C25.9323 14.3853 27.2275 15.4673 28.2259 16.8002C28.3851 17.0123 28.4534 17.279 28.4159 17.5416C28.3784 17.8041 28.2381 18.041 28.0259 18.2002C27.8571 18.3224 27.6543 18.3888 27.4459 18.3902Z" fill="#FF6D70"/>
</svg>
