<svg width="38" height="38" viewBox="0 0 38 38" fill="none" xmlns="http://www.w3.org/2000/svg">
<path d="M15.6619 15.0999C15.5978 16.6729 16.0703 18.2209 17.0019 19.4899C17.0104 19.494 17.0175 19.5004 17.0225 19.5084C17.0275 19.5163 17.0302 19.5255 17.0302 19.5349C17.0302 19.5443 17.0275 19.5535 17.0225 19.5615C17.0175 19.5694 17.0104 19.5758 17.0019 19.5799H16.1019C15.893 19.5755 15.6883 19.5204 15.5054 19.4194C15.3225 19.3183 15.1669 19.1744 15.0519 18.9999C14.3344 17.8278 13.9699 16.4738 14.0019 15.0999C13.9789 13.7429 14.3431 12.4074 15.0519 11.2499C15.1639 11.0672 15.3192 10.915 15.5041 10.8069C15.6891 10.6987 15.8979 10.6379 16.1119 10.6299H17.0019C17.0104 10.634 17.0175 10.6404 17.0225 10.6483C17.0275 10.6563 17.0302 10.6655 17.0302 10.6749C17.0302 10.6843 17.0275 10.6935 17.0225 10.7015C17.0175 10.7094 17.0104 10.7158 17.0019 10.7199C16.0575 11.9806 15.5708 13.5255 15.6219 15.0999" fill="white"/>
<path d="M13.5715 15.0999C13.5307 16.6839 14.0356 18.2338 15.0015 19.4899C15.0099 19.494 15.017 19.5004 15.022 19.5083C15.027 19.5163 15.0297 19.5255 15.0297 19.5349C15.0297 19.5443 15.027 19.5535 15.022 19.5614C15.017 19.5694 15.0099 19.5758 15.0015 19.5799H14.1015C13.8838 19.5856 13.6682 19.5353 13.4756 19.4337C13.283 19.3322 13.1197 19.1828 13.0015 18.9999C12.283 17.8424 11.9023 16.5072 11.9023 15.1449C11.9023 13.7826 12.283 12.4474 13.0015 11.2899C13.112 11.106 13.267 10.9528 13.4523 10.8445C13.6375 10.7361 13.847 10.6761 14.0615 10.6699H15.0015C15.0099 10.674 15.017 10.6804 15.022 10.6883C15.027 10.6963 15.0297 10.7055 15.0297 10.7149C15.0297 10.7243 15.027 10.7335 15.022 10.7414C15.017 10.7494 15.0099 10.7558 15.0015 10.7599C14.0341 12.0114 13.5289 13.5587 13.5715 15.1399" fill="white"/>
<path d="M17.7501 15.1001C17.6882 16.6624 18.1261 18.2037 19.0001 19.5001C19.0001 19.5001 19.0001 19.5701 19.0001 19.5801H18.0001C17.7943 19.5763 17.5932 19.5178 17.4175 19.4106C17.2417 19.3034 17.0977 19.1514 17.0001 18.9701C16.3371 17.7922 15.9925 16.4618 16.0001 15.1101C15.9938 13.7618 16.3384 12.4349 17.0001 11.2601C17.0964 11.077 17.2399 10.9229 17.4157 10.8139C17.5915 10.7049 17.7933 10.6449 18.0001 10.6401H19.0001C19.01 10.6511 19.0154 10.6654 19.0154 10.6801C19.0154 10.6949 19.01 10.7091 19.0001 10.7201C18.1156 12.0092 17.667 13.5476 17.7201 15.1101" fill="white"/>
<path d="M21.8894 14.2199C22.0694 14.2199 22.1794 14.0899 22.1494 13.8699C22.027 12.9482 21.7282 12.0586 21.2694 11.2499C21.1731 11.0668 21.0297 10.9127 20.8538 10.8037C20.678 10.6947 20.4762 10.6347 20.2694 10.6299H19.2694C19.2694 10.6299 19.1994 10.6299 19.2694 10.7099C19.9884 11.7476 20.4134 12.9604 20.4994 14.2199H21.8494" fill="white"/>
<path d="M24.0016 14.2199C24.1816 14.2199 24.2916 14.0999 24.2616 13.8699C24.114 12.9366 23.7734 12.0443 23.2616 11.2499C23.1511 11.066 22.9961 10.9128 22.8108 10.8045C22.6256 10.6961 22.4161 10.6361 22.2016 10.6299H21.3016C21.2932 10.634 21.2861 10.6404 21.2811 10.6483C21.2761 10.6563 21.2734 10.6655 21.2734 10.6749C21.2734 10.6843 21.2761 10.6935 21.2811 10.7015C21.2861 10.7094 21.2932 10.7158 21.3016 10.7199C22.0808 11.7297 22.5435 12.9475 22.6316 14.2199H24.0016Z" fill="white"/>
<path d="M26.0585 14.2199C26.2385 14.2199 26.3585 14.0899 26.3185 13.8699C26.17 12.9368 25.8295 12.0447 25.3185 11.2499C25.205 11.0664 25.0479 10.9139 24.8613 10.8057C24.6746 10.6975 24.4641 10.6372 24.2485 10.6299H23.3485C23.3401 10.634 23.3329 10.6404 23.3279 10.6483C23.323 10.6563 23.3203 10.6655 23.3203 10.6749C23.3203 10.6843 23.323 10.6935 23.3279 10.7015C23.3329 10.7094 23.3401 10.7158 23.3485 10.7199C24.1424 11.7256 24.6224 12.943 24.7285 14.2199H26.0785" fill="white"/>
<path d="M21.8894 16C22.0694 16 22.1794 16.12 22.1494 16.35C22.0274 17.2813 21.7287 18.1807 21.2694 19C21.1718 19.1813 21.0278 19.3333 20.852 19.4405C20.6763 19.5477 20.4752 19.6062 20.2694 19.61H19.2694C19.2694 19.61 19.1994 19.61 19.2694 19.53C20.006 18.4908 20.4451 17.2703 20.5394 16H21.8894Z" fill="white"/>
<path d="M24.0016 16C24.1816 16 24.2916 16.12 24.2616 16.35C24.1106 17.2824 23.7703 18.1741 23.2616 18.97C23.1506 19.1527 22.9952 19.3044 22.8099 19.411C22.6246 19.5176 22.4154 19.5758 22.2016 19.58H21.3016C21.2932 19.5759 21.2861 19.5695 21.2811 19.5616C21.2761 19.5536 21.2734 19.5444 21.2734 19.535C21.2734 19.5256 21.2761 19.5164 21.2811 19.5084C21.2861 19.5005 21.2932 19.4941 21.3016 19.49C22.0738 18.481 22.5328 17.2675 22.6216 16H24.0016Z" fill="white"/>
<path d="M26.0585 16C26.2385 16 26.3585 16.12 26.3185 16.35C26.168 17.2826 25.8277 18.1743 25.3185 18.97C25.2045 19.1522 25.0471 19.3033 24.8603 19.4098C24.6736 19.5162 24.4634 19.5747 24.2485 19.58H23.3485C23.3401 19.5759 23.3329 19.5695 23.3279 19.5616C23.323 19.5536 23.3203 19.5444 23.3203 19.535C23.3203 19.5256 23.323 19.5164 23.3279 19.5084C23.3329 19.5005 23.3401 19.4941 23.3485 19.49C24.1299 18.4827 24.6023 17.2704 24.7085 16H26.0585Z" fill="white"/>
<path d="M18.9999 35.9999C18.8048 36.0006 18.6136 35.9441 18.4502 35.8375C18.2867 35.7309 18.158 35.5788 18.0799 35.3999C17.3806 33.8866 16.4863 32.4713 15.4199 31.1899C14.4763 30.0304 13.4751 28.919 12.4199 27.8599C10.2499 25.5999 7.99992 23.2599 6.82992 20.1799C5.96795 18.1487 5.63508 15.9321 5.86243 13.7374C6.08977 11.5426 6.86992 9.44128 8.12992 7.62989C9.36055 5.89227 10.9898 4.475 12.8811 3.49688C14.7724 2.51876 16.8707 2.0083 18.9999 2.0083C21.1292 2.0083 23.2274 2.51876 25.1187 3.49688C27.01 4.475 28.6393 5.89227 29.8699 7.62989C31.1282 9.44014 31.9073 11.5397 32.1347 13.7325C32.362 15.9254 32.0301 18.1401 31.1699 20.1699C29.9999 23.2499 27.7499 25.5899 25.5799 27.8499C24.5248 28.909 23.5235 30.0204 22.5799 31.1799C21.5135 32.4613 20.6193 33.8766 19.9199 35.3899C19.8434 35.5707 19.7153 35.7249 19.5517 35.8334C19.3881 35.9418 19.1962 35.9998 18.9999 35.9999ZM18.9999 3.99989C17.1886 3.99931 15.4037 4.43415 13.7956 5.26777C12.1875 6.1014 10.8034 7.30937 9.75992 8.78989C8.69742 10.3325 8.04217 12.1187 7.8551 13.9824C7.66802 15.8462 7.9552 17.7269 8.68992 19.4499C9.68992 22.1599 11.7399 24.2499 13.8699 26.4499C14.9299 27.5499 16.0299 28.6999 16.9899 29.9199C17.7176 30.8291 18.3856 31.7844 18.9899 32.7799C19.5942 31.7844 20.2623 30.8291 20.9899 29.9199C21.9899 28.6999 23.0499 27.5499 24.1099 26.4499C26.2399 24.2299 28.2499 22.1399 29.2899 19.4499C30.0275 17.7286 30.318 15.8487 30.1345 13.985C29.9509 12.1213 29.2992 10.3343 28.2399 8.78989C27.1964 7.30937 25.8123 6.1014 24.2042 5.26777C22.5961 4.43415 20.8112 3.99931 18.9999 3.99989Z" fill="white"/>
</svg>
