<svg width="24" height="18" viewBox="0 0 24 18" fill="none" xmlns="http://www.w3.org/2000/svg">
<path d="M2.34146 0.512238C1.04268 0.512238 0 1.60523 0 2.91774V15.0732C0 16.3857 1.04268 17.4878 2.34146 17.4878H21.6585C22.9573 17.4878 24 16.3857 24 15.0732V2.91774C24 1.60523 22.9573 0.512238 21.6585 0.512238H2.34146ZM2.34146 1.68297H21.6585C21.8323 1.68297 21.9958 1.73328 22.1433 1.80187L12.7224 10.7468C12.2902 11.1573 11.7289 11.1573 11.2956 10.7468L1.85655 1.80187C2.00403 1.73327 2.16752 1.68297 2.34129 1.68297H2.34146ZM1.18902 2.78053L7.85663 9.10073L1.29878 15.6495C1.21646 15.4792 1.17073 15.2837 1.17073 15.0733V2.91786C1.17073 2.86984 1.18445 2.82639 1.18902 2.78066V2.78053ZM22.811 2.78053C22.8155 2.82626 22.8293 2.86971 22.8293 2.91773V15.0731C22.8293 15.2801 22.7812 15.471 22.7012 15.6402L16.1615 9.09143L22.811 2.78053ZM15.311 9.9056L21.7134 16.3171H21.6585H2.34146H2.29573L8.70724 9.91468L10.4908 11.5976C11.3402 12.4025 12.6779 12.4036 13.5274 11.5976L15.311 9.9056Z" fill="white"/>
</svg>
